<svg width="40" height="9" viewBox="0 0 40 9" fill="none" xmlns="http://www.w3.org/2000/svg">
<path d="M3.06 9.00001C2.364 9.00001 1.828 8.83201 1.452 8.49601C1.084 8.15201 0.900002 7.64001 0.900002 6.96001V2.64001C0.900002 1.96001 1.084 1.45201 1.452 1.11601C1.828 0.772007 2.364 0.600006 3.06 0.600006H4.524V1.51201H2.94C2.644 1.51201 2.404 1.60001 2.22 1.77601C2.036 1.95201 1.944 2.16401 1.944 2.41201V7.18801C1.944 7.43601 2.036 7.64801 2.22 7.82401C2.404 8.00001 2.644 8.08801 2.94 8.08801H4.524V9.00001H3.06ZM10.2359 3.84001C10.2359 4.48801 10.0639 4.96801 9.71991 5.28001C9.37591 5.58401 8.86791 5.73601 8.19591 5.73601H7.06791V9.00001H6.02391V0.600006H8.17191C8.85191 0.600006 9.36391 0.752006 9.70791 1.05601C10.0599 1.35201 10.2359 1.82401 10.2359 2.47201V3.84001ZM9.19191 2.36401C9.19191 2.06001 9.11991 1.84001 8.97591 1.70401C8.83991 1.56801 8.61991 1.50001 8.31591 1.50001H7.06791V4.83601H8.31591C8.61991 4.83601 8.83991 4.76801 8.97591 4.63201C9.11991 4.48801 9.19191 4.26401 9.19191 3.96001V2.36401ZM12.5064 8.11201H15.4704V9.00001H11.4384V7.94401L14.5344 1.48801H11.7144V0.600006H15.5904V1.65601L12.5064 8.11201ZM21.753 6.96001C21.753 7.64001 21.565 8.15201 21.189 8.49601C20.821 8.83201 20.289 9.00001 19.593 9.00001H19.185C18.489 9.00001 17.953 8.83201 17.577 8.49601C17.209 8.15201 17.025 7.64001 17.025 6.96001V2.64001C17.025 1.96001 17.209 1.45201 17.577 1.11601C17.953 0.772007 18.489 0.600006 19.185 0.600006H19.593C20.289 0.600006 20.821 0.772007 21.189 1.11601C21.565 1.45201 21.753 1.96001 21.753 2.64001V6.96001ZM20.709 2.41201C20.709 2.16401 20.617 1.95201 20.433 1.77601C20.249 1.60001 20.009 1.51201 19.713 1.51201H19.065C18.769 1.51201 18.529 1.60001 18.345 1.77601C18.161 1.95201 18.069 2.16401 18.069 2.41201V7.18801C18.069 7.43601 18.161 7.64801 18.345 7.82401C18.529 8.00001 18.769 8.08801 19.065 8.08801H19.713C20.009 8.08801 20.249 8.00001 20.433 7.82401C20.617 7.64801 20.709 7.43601 20.709 7.18801V2.41201ZM26.4803 9.00001L24.6443 1.48801V9.00001H23.6723V0.600006H25.3763L27.2243 8.11201V0.600006H28.1963V9.00001H26.4803ZM30.2348 9.00001V0.600006H34.1708V1.47601H31.2788V4.22401H33.8708V5.10001H31.2788V8.12401H34.1708V9.00001H30.2348ZM39.4947 6.96001C39.4947 7.64001 39.3067 8.15201 38.9307 8.49601C38.5627 8.83201 38.0307 9.00001 37.3347 9.00001H35.7507V8.08801H37.4547C37.7507 8.08801 37.9907 8.00001 38.1747 7.82401C38.3587 7.64801 38.4507 7.43601 38.4507 7.18801V5.94001C38.4507 5.70001 38.3867 5.50801 38.2587 5.36401C38.1387 5.21201 37.9547 5.13601 37.7067 5.13601H37.4667C36.8747 5.13601 36.4067 4.96401 36.0627 4.62001C35.7187 4.26801 35.5467 3.76001 35.5467 3.09601V2.64001C35.5467 1.96001 35.7307 1.45201 36.0987 1.11601C36.4747 0.772007 37.0107 0.600006 37.7067 0.600006H39.3027V1.51201H37.5867C37.2907 1.51201 37.0507 1.60001 36.8667 1.77601C36.6827 1.95201 36.5907 2.16401 36.5907 2.41201V3.32401C36.5907 3.57201 36.6707 3.78001 36.8307 3.94801C36.9907 4.10801 37.1987 4.18801 37.4547 4.18801H37.6947C38.2627 4.18801 38.7027 4.35201 39.0147 4.68001C39.3347 5.00801 39.4947 5.50401 39.4947 6.16801V6.96001Z" fill="black"/>
</svg>
